<?xml version="1.0" encoding="UTF-8" standalone="no"?>
<!-- Created with Inkscape (http://www.inkscape.org/) -->

<svg
   version="1.1"
   id="svg1"
   width="342.46609"
   height="554"
   viewBox="0 0 342.4661 554"
   sodipodi:docname="erlenmeyer colorido.svg"
   xml:space="preserve"
   inkscape:version="1.4.2 (f4327f4, 2025-05-13)"
   inkscape:export-filename="erlenmeyer colorido fundo branco.png"
   inkscape:export-xdpi="96"
   inkscape:export-ydpi="96"
   xmlns:inkscape="http://www.inkscape.org/namespaces/inkscape"
   xmlns:sodipodi="http://sodipodi.sourceforge.net/DTD/sodipodi-0.dtd"
   xmlns="http://www.w3.org/2000/svg"
   xmlns:svg="http://www.w3.org/2000/svg"><defs
     id="defs1"><inkscape:path-effect
       effect="bspline"
       id="path-effect29"
       is_visible="true"
       lpeversion="1.3"
       weight="33.333333"
       steps="2"
       helper_size="0"
       apply_no_weight="true"
       apply_with_weight="true"
       only_selected="false"
       uniform="false" /><inkscape:path-effect
       effect="bspline"
       id="path-effect28"
       is_visible="true"
       lpeversion="1.3"
       weight="33.333333"
       steps="2"
       helper_size="0"
       apply_no_weight="true"
       apply_with_weight="true"
       only_selected="false"
       uniform="false" /></defs><sodipodi:namedview
     id="namedview1"
     pagecolor="#ffffff"
     bordercolor="#000000"
     borderopacity="0.25"
     inkscape:showpageshadow="2"
     inkscape:pageopacity="0.0"
     inkscape:pagecheckerboard="0"
     inkscape:deskcolor="#d1d1d1"
     inkscape:zoom="1"
     inkscape:cx="171.5"
     inkscape:cy="261.5"
     inkscape:window-width="1920"
     inkscape:window-height="1017"
     inkscape:window-x="-8"
     inkscape:window-y="-8"
     inkscape:window-maximized="1"
     inkscape:current-layer="g8"><inkscape:page
       x="0"
       y="0"
       width="342.46609"
       height="554"
       id="page2"
       margin="0"
       bleed="0" /></sodipodi:namedview><g
     inkscape:groupmode="layer"
     inkscape:label="Image"
     id="g1"
     transform="translate(-448.50855,-535.77559)"><g
       id="g8"><rect
         style="fill:#ffffff;stroke:none;stroke-width:1.58307;stroke-linejoin:round;stroke-miterlimit:0;stroke-dashoffset:2.64189"
         id="rect3"
         width="102.60574"
         height="165.98309"
         x="607.54602"
         y="898.4549"
         rx="0.44575986"
         ry="0.38948363"
         transform="matrix(3.3376893,0,0,3.3376893,-1579.2913,-2462.9877)" /><g
         id="g7"
         transform="matrix(2.8863247,0,0,2.8863247,-1178.0035,-1745.7011)"><g
           id="g2"
           transform="matrix(1.1563804,0,0,1.1563804,-139.03072,-248.51208)"><g
             id="g3"
             transform="translate(10.592759,-2.9659726)"><path
               style="fill:#005556;fill-opacity:1;fill-rule:nonzero;stroke:none;stroke-opacity:1"
               d="m 196.6128,1042.6437 c -18.70136,5.1305 -37.40276,10.2609 -56.10415,15.3914"
               id="path28"
               inkscape:path-effect="#path-effect28"
               inkscape:original-d="m 196.6128,1042.6437 c -18.70138,5.1304 -37.40277,10.2609 -56.10415,15.3914"
               transform="matrix(0.23936484,0,0,0.23936484,573.314,790.54714)" /><path
               style="fill:#005556;fill-opacity:1;fill-rule:nonzero;stroke:none;stroke-opacity:1"
               d="m 152.92107,1077.3985 c 0,0 77.95003,-24.8249 77.95003,-24.8249"
               id="path29"
               inkscape:path-effect="#path-effect29"
               inkscape:original-d="m 152.92107,1077.3985 77.95003,-24.8249"
               transform="matrix(0.23936484,0,0,0.23936484,573.314,790.54714)" /><g
               id="g26"
               transform="matrix(0.27679681,0,0,0.27679681,521.35517,684.19899)"><path
                 style="fill:#002856;fill-opacity:1;stroke:none"
                 d="m 404.4424,967.9313 c 0.36252,12.5827 0.32,25.1722 0.32,37.76 0,8.749 0.48761,17.7238 -1.76356,26.24 -1.53335,5.8007 -4.60701,11.1707 -7.00883,16.64 -4.85222,11.0493 -10.0288,21.9498 -14.97158,32.96 -16.16725,36.0132 -32.95607,71.7467 -48.93027,107.84 -4.02445,9.0932 -8.15079,18.1666 -12.30901,27.2 -2.88299,6.2632 -6.10366,12.4343 -7.64378,19.2 -2.99521,13.1578 -2.01608,27.7478 3.87509,40 7.26166,15.1026 21.94688,26.7042 37.87194,31.3883 8.55309,2.5158 17.09586,2.5317 25.92,2.5317 h 24.64 90.23999 c 12.34075,0 25.22319,1.0446 37.44,-0.7847 15.11346,-2.263 29.94076,-11.1182 39.214,-23.2214 3.11678,-4.0679 6.00381,-8.6705 7.92069,-13.4339 5.47664,-13.609 5.17992,-28.7883 0.47027,-42.56 -1.46672,-4.2889 -3.71306,-8.39 -5.6539,-12.48 -2.65114,-5.5866 -5.15848,-11.2417 -7.76606,-16.8504 -13.60621,-29.2662 -26.70469,-58.7606 -40.12746,-88.1096 -10.56234,-23.0945 -21.4824,-46.0903 -31.47306,-69.44 -2.1793,-5.0933 -4.66032,-10.1766 -5.62014,-15.68 -0.94436,-5.4145 -0.80434,-10.8443 -0.80434,-16.32 v -21.12 -14.08 c 0,-1.8863 -0.46363,-4.5143 0.21332,-6.2998 0.70856,-1.8688 4.91987,-1.0563 6.50668,-1.0606 5.42123,-0.015 11.72811,-2.6827 10.68797,-9.2796 -1.40722,-8.9249 -11.74597,-7.36 -18.36797,-7.36 -2.02547,0 -4.05498,-0.037 -6.08,0.01 -1.21011,0.026 -2.36773,0.1943 -3.52,0.575 -6.63445,2.192 -6.72,8.6325 -6.72,14.4577 v 9.92 30.4 c 0,6.9202 -0.31361,13.9586 0.80424,20.8 1.33514,8.1712 4.66561,15.8421 8.0125,23.36 21.08973,47.3724 42.91715,94.4077 64.03889,141.76 5.16535,11.5801 10.53195,23.0978 15.94351,34.56 3.14524,6.6619 5.83639,12.7808 6.65217,20.16 0.18031,1.6311 0.58846,3.1419 0.43338,4.8 -1.6757,17.916 -13.83379,32.5797 -30.92469,38.2277 -7.54318,2.4927 -15.20092,2.4123 -23.04,2.4123 h -24.96 -91.51999 -18.56 c -5.15123,0 -10.28205,0.1255 -15.36,-0.8653 -6.3819,-1.2452 -12.37248,-4.0725 -17.59729,-7.9198 -3.67318,-2.7048 -6.73829,-5.875 -9.55602,-9.4549 -2.08273,-2.6461 -3.79679,-5.821 -5.01768,-8.96 -2.10014,-5.3995 -3.40215,-11.7838 -2.97314,-17.6 0.58969,-7.9946 3.68224,-14.8985 6.94488,-22.08 3.09434,-6.8109 6.28656,-13.607 9.23881,-20.48 17.36684,-40.431 36.686,-80.0243 54.37365,-120.32 4.88926,-11.1386 10.09011,-22.1398 14.97575,-33.28 3.19383,-7.2825 6.64566,-14.4891 8.00772,-22.4 1.27191,-7.3873 1.12332,-14.9191 1.12332,-22.4 v -26.88 -14.08 c -2e-5,-2.7225 0.24574,-6.0396 -0.67286,-8.64 -2.97873,-8.4322 -14.80644,-6.08 -21.72714,-6.08 -3.39466,0 -6.95953,-0.079 -9.76611,2.1682 -4.11216,3.2925 -3.36706,10.6046 1.13358,13.1906 3.53816,2.033 9.53843,1.716 13.43253,0.9612 z"
                 id="path25"
                 inkscape:label="path25" /></g><ellipse
               style="fill:#bf0a25;fill-opacity:1;stroke:none;stroke-width:0.350602;stroke-opacity:1"
               id="path26"
               cx="645.22894"
               cy="944.35529"
               rx="6.0700755"
               ry="6.2020335"
               inkscape:highlight-color="#f35235" /><ellipse
               style="display:inline;fill:#de790f;fill-opacity:1;stroke:none;stroke-width:0.293012;stroke-opacity:1"
               id="path26-2"
               cx="658.37408"
               cy="932.44476"
               rx="5.0729856"
               ry="5.1832681"
               inkscape:highlight-color="#f35235"
               inkscape:label="path26-2" /><ellipse
               style="fill:#f8af00;fill-opacity:1;stroke:none;stroke-width:0.219629;stroke-opacity:1"
               id="path26-4"
               cx="648.01587"
               cy="922.6781"
               rx="3.8025007"
               ry="3.8851635"
               inkscape:highlight-color="#f35235" /><path
               style="fill:#236489;fill-opacity:1;stroke:none;stroke-width:0.272732"
               d="m 624.83614,1004.0101 c -1.55097,3.0724 -2.60634,5.8988 -4.10318,8.9949 -1.38309,2.8608 -2.57862,6.4252 -4.0425,9.7105 -1.20601,2.7066 -2.49719,5.3387 -2.44275,7.9422 0.0346,1.6539 0.47825,3.2961 1.5165,4.9385 2.04404,3.2334 5.61774,4.4572 9.53684,4.8233 3.36026,0.3138 9.13067,0.06 11.31517,0.081 l 20.58896,0.2003 c 4.90078,0.048 10.15247,0.6157 14.35808,-2.2342 4.00129,-2.7115 5.90896,-7.3382 4.98426,-11.8516 -0.50986,-2.4887 -1.96636,-4.9014 -3.1318,-7.1696 -1.54558,-3.0079 -2.96269,-6.0812 -4.46364,-9.1094 l -3.34119,-6.7478 c -0.39728,-0.8022 -0.75952,-2.1988 -1.43599,-2.8168 -0.38443,-0.3513 -1.67314,-0.1353 -2.18369,-0.1353 h -6.05027 -20.95016 -6.19559 c -2.40635,-0.3268 -3.07817,1.6147 -3.95905,3.3737 z"
               id="path63"
               sodipodi:nodetypes="sssssssssssccsscccs" /><path
               style="fill:#f8af00;fill-opacity:1;stroke:none;stroke-width:0.0656786;image-rendering:optimizeSpeed"
               d="m 660.56567,1000.4 c -0.76779,0.1776 -0.94567,0.8805 -1.13564,1.5416 -0.34099,1.1866 -0.46724,3.3009 -1.75421,3.8052 -0.93658,0.3671 -1.88549,0.7049 -2.82417,1.0674 -0.4315,0.1666 -0.92114,0.4048 -1.37924,0.2186 -0.9471,-0.3852 -1.83958,-1.4397 -2.62714,-2.0864 -0.42627,-0.35 -0.93404,-0.7324 -1.5106,-0.4941 -0.50316,0.208 -0.95332,0.6663 -1.37925,0.9981 -0.88031,0.6859 -1.75283,1.3808 -2.62714,2.0741 -0.46656,0.3699 -1.11434,0.7627 -1.03843,1.4446 0.11367,1.0214 0.93844,2.2322 1.38381,3.1526 0.18638,0.3853 0.52467,0.8655 0.48067,1.3136 -0.033,0.336 -0.28711,0.6423 -0.4598,0.9195 -0.53453,0.8583 -1.24815,2.5972 -2.20524,3.0141 -1.03581,0.4511 -2.4996,0.2511 -3.61231,0.3824 -0.41691,0.049 -0.81914,0.01 -1.17937,0.2686 -0.49177,0.3606 -0.53625,1.0378 -0.6465,1.5892 -0.28518,1.426 -0.86883,3.0789 -0.86173,4.5318 0.003,0.7072 0.62024,1.0512 1.17699,1.3298 0.98463,0.4926 2.22923,0.9593 3.08588,1.6514 0.78694,0.6357 0.7125,2.3822 0.83633,3.3239 0.055,0.4189 0.22705,0.9726 0.0746,1.3793 -0.55765,1.4878 -2.71516,2.088 -3.32508,3.5466 -0.24575,0.5878 0.16318,1.2116 0.44476,1.7076 0.69903,1.2315 1.26758,2.6906 2.14174,3.8067 0.59617,0.7612 1.59681,0.44 2.39007,0.2576 0.72376,-0.1664 1.44673,-0.3292 2.16738,-0.5093 0.35102,-0.088 0.75765,-0.232 1.11654,-0.1107 0.37398,0.1265 0.64924,0.4889 0.9195,0.7592 0.71452,0.7145 2.28801,1.718 2.47412,2.7584 0.17289,0.9665 -0.19809,2.2496 -0.33462,3.2183 -0.0732,0.5196 -0.2094,1.0879 0.0645,1.5754 0.28663,0.5099 0.96815,0.7018 1.47397,0.9203 1.18917,0.5138 2.36988,1.2454 3.6123,1.6131 0.79081,0.2341 1.28853,-0.2941 1.71687,-0.8905 0.58357,-0.8126 1.30326,-2.4124 2.22384,-2.8524 0.68405,-0.3269 1.82945,0.038 2.56145,0.088 1.60793,0.1102 3.19646,-0.1451 4.79453,-0.1443 0.63142,0 0.92712,0.4706 1.24957,0.9384 0.6319,0.9167 1.66589,3.2184 3.01953,2.887 1.32506,-0.3244 2.62894,-1.1631 3.87502,-1.714 0.51238,-0.2265 1.16882,-0.4227 1.4099,-0.976 0.19411,-0.4456 0.0638,-0.9834 -0.003,-1.4449 -0.13665,-0.9437 -0.53739,-2.283 -0.32125,-3.2183 0.21803,-0.9434 1.53676,-1.8342 2.19831,-2.4957 0.36769,-0.3677 0.73783,-0.8546 1.24789,-1.0244 0.79083,-0.2633 2.09582,0.341 2.88985,0.5127 0.81228,0.1756 1.95151,0.6651 2.60553,-0.082 0.95023,-1.0857 1.54206,-2.7426 2.24549,-4.0035 0.26929,-0.4827 0.65584,-1.0767 0.37325,-1.642 -0.72714,-1.4543 -3.45888,-2.3869 -3.24373,-4.2034 0.10121,-0.8546 0.22249,-1.7098 0.34582,-2.5615 0.0629,-0.4339 0.0718,-0.8792 0.35261,-1.2417 0.93397,-1.2058 3.0001,-1.2618 4.0643,-2.3265 0.47541,-0.4756 0.32254,-1.0351 0.20551,-1.6203 -0.22302,-1.1153 -0.46502,-2.229 -0.66008,-3.3497 -0.0952,-0.5467 -0.13976,-1.3139 -0.48596,-1.7671 -0.36212,-0.4741 -0.94115,-0.4269 -1.46797,-0.4771 -1.0753,-0.1023 -2.3069,-0.025 -3.34959,-0.3125 -0.51788,-0.1428 -0.76113,-0.5634 -1.02994,-0.9899 -0.55592,-0.8821 -1.29034,-1.7967 -1.6938,-2.7585 -0.22408,-0.5342 0.14202,-1.0436 0.37553,-1.5106 0.45817,-0.9164 1.23183,-2.0776 1.40711,-3.0868 0.12294,-0.708 -0.41071,-1.0665 -0.8979,-1.4621 -0.84833,-0.689 -1.71598,-1.3545 -2.56146,-2.0468 -0.45915,-0.3761 -0.95737,-0.9107 -1.51061,-1.1394 -0.66486,-0.2748 -1.21726,0.2601 -1.70763,0.6342 -1.06345,0.8113 -2.24515,2.3666 -3.678,1.8432 -0.90148,-0.3294 -1.79385,-0.6833 -2.69281,-1.0196 -0.43168,-0.1614 -0.91765,-0.271 -1.18257,-0.6856 -0.5494,-0.8598 -0.66005,-2.2383 -0.93819,-3.2173 -0.13139,-0.4624 -0.20356,-0.9586 -0.57824,-1.2988 -0.4475,-0.4062 -1.0777,-0.3431 -1.63578,-0.3431 -1.38909,0 -3.11392,-0.2778 -4.46613,0.034 m 1.77332,14.5646 c 1.20669,-0.1424 2.49587,0 3.67799,0.2442 8.07497,1.6725 11.64023,11.6726 6.93384,18.2583 -0.74475,1.0422 -1.67036,1.9497 -2.73042,2.6702 -1.70972,1.1621 -3.60452,1.798 -5.64835,2.0399 -1.35577,0.1604 -2.87816,0.058 -4.20341,-0.2685 -7.6591,-1.8902 -11.12701,-11.0374 -6.92334,-17.643 0.79111,-1.243 1.8411,-2.3666 3.04831,-3.2158 1.76946,-1.2446 3.71915,-1.8343 5.84538,-2.0853 z"
               id="path17" /></g></g></g></g></g></svg>
